<?xml version="1.0" encoding="UTF-8" standalone="no"?>
<svg
   xmlns:dc="http://purl.org/dc/elements/1.1/"
   xmlns:cc="http://creativecommons.org/ns#"
   xmlns:rdf="http://www.w3.org/1999/02/22-rdf-syntax-ns#"
   xmlns:svg="http://www.w3.org/2000/svg"
   xmlns="http://www.w3.org/2000/svg"
   xmlns:sodipodi="http://sodipodi.sourceforge.net/DTD/sodipodi-0.dtd"
   xmlns:inkscape="http://www.inkscape.org/namespaces/inkscape"
   width="210mm"
   height="122mm"
   viewBox="0 0 210 122"
   version="1.1"
   id="svg2282"
   inkscape:version="1.0.2-2 (e86c870879, 2021-01-15)"
   sodipodi:docname="feature4.svg">
  <defs
     id="defs2276">
    <rect
       x="6.4144687"
       y="33.408691"
       width="11.024868"
       height="14.365737"
       id="rect4173" />
    <rect
       x="1.6036172"
       y="33.341874"
       width="14.699824"
       height="18.64205"
       id="rect4167" />
    <rect
       x="11.826677"
       y="15.768902"
       width="14.566189"
       height="12.227581"
       id="rect4161" />
    <rect
       x="31.470987"
       y="13.029389"
       width="14.365737"
       height="15.100728"
       id="rect4155" />
    <inkscape:path-effect
       effect="fillet_chamfer"
       id="path-effect887"
       is_visible="true"
       lpeversion="1"
       satellites_param="F,0,0,1,0,0.52916667,0,1 @ F,0,0,1,0,10.451042,0,1 @ F,0,0,1,0,6.1515625,0,1 @ F,0,0,1,0,1.6536458,0,1 @ F,0,0,1,0,4.1671875,0,1 @ F,0,0,1,0,4.1671875,0,1 @ F,0,0,1,0,2.38125,0,1 @ F,0,0,1,0,2.38125,0,1 @ F,0,0,1,0,3.175,0,1 @ F,0,0,1,0,3.175,0,1 @ F,0,0,1,0,2.7119792,0,1 @ F,0,0,1,0,2.7119792,0,1 @ F,0,0,1,0,3.96875,0,1 @ F,0,1,1,0,3.96875,0,1 @ F,0,0,1,0,2.4473958,0,1 @ F,0,0,1,0,2.4473958,0,1 @ F,0,0,1,0,1.2567708,0,1 @ F,0,0,1,0,5.953125,0,1 @ F,0,0,1,0,2.7119792,0,1 @ F,0,0,1,0,2.7119792,0,1 @ F,0,0,1,0,3.0427083,0,1 @ F,0,0,1,0,3.0427083,0,1 @ F,0,0,1,0,3.1088542,0,1 @ F,0,0,1,0,3.1088542,0,1 @ F,0,0,1,0,2.4473958,0,1 @ F,0,0,1,0,2.4473958,0,1 @ F,0,0,1,0,3.571875,0,1 @ F,0,0,1,0,3.571875,0,1 @ F,0,0,1,0,1.3890625,0,1"
       unit="px"
       method="auto"
       mode="F"
       radius="2"
       chamfer_steps="1"
       flexible="false"
       use_knot_distance="true"
       apply_no_radius="true"
       apply_with_radius="true"
       only_selected="false"
       hide_knots="false" />
    <rect
       x="48.268875"
       y="-163.32841"
       width="106.26636"
       height="23.198996"
       id="rect909" />
    <rect
       x="48.268875"
       y="-163.32841"
       width="106.26636"
       height="23.198996"
       id="rect2855" />
    <rect
       x="48.268875"
       y="-163.32841"
       width="106.26636"
       height="23.198996"
       id="rect915" />
    <rect
       x="48.268875"
       y="-163.32841"
       width="106.26636"
       height="23.198996"
       id="rect2858" />
  </defs>
  <sodipodi:namedview
     id="base"
     pagecolor="#ffffff"
     bordercolor="#666666"
     borderopacity="1.0"
     inkscape:pageopacity="0.0"
     inkscape:pageshadow="2"
     inkscape:zoom="1.979899"
     inkscape:cx="607.83008"
     inkscape:cy="372.46095"
     inkscape:document-units="mm"
     inkscape:current-layer="layer1"
     inkscape:document-rotation="0"
     showgrid="false"
     inkscape:window-width="3840"
     inkscape:window-height="2050"
     inkscape:window-x="-12"
     inkscape:window-y="-12"
     inkscape:window-maximized="1" />
  <metadata
     id="metadata2279">
    <rdf:RDF>
      <cc:Work
         rdf:about="">
        <dc:format>image/svg+xml</dc:format>
        <dc:type
           rdf:resource="http://purl.org/dc/dcmitype/StillImage" />
        <dc:title />
      </cc:Work>
    </rdf:RDF>
  </metadata>
  <g
     inkscape:label="Layer 1"
     inkscape:groupmode="layer"
     id="layer1">
    <g
       id="g4208"
       transform="matrix(1,-0.17632698,0,1,0,17.379299)">
      <path
         style="fill:#0000b7;fill-opacity:1;stroke:#0000b7;stroke-width:0.264583px;stroke-linecap:butt;stroke-linejoin:miter;stroke-opacity:1"
         d="m 29.244269,46.693707 v 8.664101 A 10.451042,10.451042 45 0 0 39.695311,65.80885 h 15.950824 a 6.1515625,6.1515625 45 0 1 6.151562,6.151563 v 2.671751 A 1.6536458,1.6536458 135 0 1 60.144051,76.28581 H 26.114998 a 4.1671875,4.1671875 135 0 0 -4.167187,4.167188 v 1.955504 a 4.1671875,4.1671875 45 0 0 4.167187,4.167188 h 23.759926 a 2.38125,2.38125 45 0 1 2.38125,2.38125 v 9.64333 a 2.38125,2.38125 45 0 0 2.38125,2.38125 H 159.46348 a 3.175,3.175 135 0 0 3.175,-3.175 v -3.00444 a 3.175,3.175 135 0 1 3.175,-3.175 h 10.951 a 2.7119792,2.7119792 135 0 0 2.71198,-2.711979 v -3.743382 a 2.7119792,2.7119792 45 0 0 -2.71198,-2.711979 h -13.89902 a 3.96875,3.96875 45 0 1 -3.96875,-3.96875 v -3.662 a 3.96875,3.96875 135 0 1 3.96875,-3.96875 h 9.11221 a 2.4473958,2.4473958 135 0 0 2.4474,-2.447396 v -4.272548 a 2.4473958,2.4473958 45 0 0 -2.4474,-2.447396 h -20.80445 a 1.2567708,1.2567708 45 0 1 -1.25677,-1.256771 v -1.396184 a 5.953125,5.953125 135 0 1 5.95312,-5.953125 h 24.26251 a 2.7119792,2.7119792 135 0 0 2.71198,-2.711979 V 37.838289 a 2.7119792,2.7119792 45 0 0 -2.71198,-2.711979 h -16.13469 a 3.0427083,3.0427083 45 0 1 -3.04271,-3.042708 v -0.08852 a 3.0427083,3.0427083 135 0 1 3.04271,-3.042708 h 7.31883 a 3.1088542,3.1088542 135 0 0 3.10885,-3.108854 V 24.016418 A 3.1088542,3.1088542 45 0 0 171.31622,20.90756 H 48.155469 a 2.4473958,2.4473958 135 0 0 -2.447396,2.447396 v 2.962928 a 2.4473958,2.4473958 45 0 0 2.447396,2.447396 h 13.063772 a 3.571875,3.571875 45 0 1 3.571875,3.571875 v 2.39778 A 3.571875,3.571875 135 0 1 61.219241,38.30681 H 30.628493 a 1.3882073,1.3882073 134.98236 0 0 -1.388208,1.389062 l 0.0037,5.939501 a 1718.5572,1718.5572 89.982358 0 1 3.26e-4,1.058334 z"
         id="path885"
         inkscape:path-effect="#path-effect887"
         inkscape:original-d="M 29.244269,46.16454 V 65.80885 H 61.797697 V 76.28581 H 21.947811 v 10.28988 h 30.308363 v 14.40583 H 162.63848 v -9.35444 h 16.83798 v -9.16734 h -20.57975 v -11.5995 h 15.52836 V 61.6929 h -24.50862 v -8.60608 h 32.92761 V 35.12631 h -21.88938 v -6.17394 h 13.47039 V 20.90756 H 45.708073 v 7.85772 h 19.083043 v 9.54153 H 29.23943 Z" />
      <circle
         style="fill:#0000b7;fill-opacity:1;stroke:#0000b7;stroke-width:0.665001;stroke-opacity:1"
         id="circle889"
         cx="16.530701"
         cy="80.425285"
         r="2.2489583" />
      <circle
         style="fill:#0000b7;fill-opacity:1;stroke:#0000b7;stroke-width:0.665001;stroke-opacity:1"
         id="circle891"
         cx="16.530701"
         cy="80.425285"
         r="2.2489583" />
      <circle
         style="fill:#0000b7;fill-opacity:1;stroke:#0000b7;stroke-width:0.665001;stroke-opacity:1"
         id="circle893"
         cx="179.8591"
         cy="66.206566"
         r="2.2489583" />
      <circle
         style="fill:#0000b7;fill-opacity:1;stroke:#0000b7;stroke-width:0.665001;stroke-opacity:1"
         id="circle895"
         cx="23.827162"
         cy="41.885033"
         r="2.2489583" />
      <circle
         style="fill:#0000b7;fill-opacity:1;stroke:#0000b7;stroke-width:0.665001;stroke-opacity:1"
         id="circle897"
         cx="167.88542"
         cy="97.450356"
         r="2.2489583" />
      <text
         xml:space="preserve"
         id="text907"
         style="font-style:normal;font-weight:normal;font-size:13.4056px;line-height:1.25;font-family:sans-serif;white-space:pre;shape-inside:url(#rect909);fill:#00ffff;fill-opacity:1;stroke:none;"
         transform="translate(8.8382413,204.348)"><tspan
           x="48.269531"
           y="-151.07501"><tspan
             style="font-style:normal;font-variant:normal;font-weight:bold;font-stretch:normal;font-size:13.4056px;font-family:Rubik;-inkscape-font-specification:'Rubik Bold';fill:#00ffff">y = x  + 5x - 2</tspan></tspan></text>
      <text
         xml:space="preserve"
         id="text913"
         style="font-style:normal;font-weight:normal;font-size:13.4056px;line-height:1.25;font-family:sans-serif;white-space:pre;shape-inside:url(#rect915);fill:#00ffff;fill-opacity:1;stroke:none;"
         transform="translate(29.498176,234.14855)"><tspan
           x="48.269531"
           y="-151.07501"><tspan
             style="font-style:normal;font-variant:normal;font-weight:bold;font-stretch:normal;font-size:13.4056px;font-family:Rubik;-inkscape-font-specification:'Rubik Bold';fill:#00ffff">f(x) =     x</tspan></tspan></text>
      <text
         xml:space="preserve"
         id="text4153"
         style="font-style:normal;font-weight:normal;font-size:5.64444px;line-height:1.25;font-family:sans-serif;white-space:pre;shape-inside:url(#rect4155);fill:#00ffff;fill-opacity:1;stroke:none;"
         transform="translate(55.324792,28.931927)"><tspan
           x="31.470703"
           y="18.188482"><tspan
             style="font-style:normal;font-variant:normal;font-weight:600;font-stretch:normal;font-size:5.64444px;font-family:Rubik;-inkscape-font-specification:'Rubik Semi-Bold';fill:#00ffff">2</tspan></tspan></text>
      <text
         xml:space="preserve"
         id="text4159"
         style="font-style:normal;font-weight:normal;font-size:10.5833px;line-height:1.25;font-family:sans-serif;white-space:pre;shape-inside:url(#rect4161);fill:#000000;fill-opacity:1;stroke:none;"
         transform="translate(104.81976,52.084149)"><tspan
           x="11.826172"
           y="25.44298"><tspan
             style="font-style:normal;font-variant:normal;font-weight:600;font-stretch:normal;font-family:Rubik;-inkscape-font-specification:'Rubik Semi-Bold';fill:#00ffff">1</tspan></tspan></text>
      <text
         xml:space="preserve"
         id="text4165"
         style="font-style:normal;font-weight:normal;font-size:4.58611px;line-height:1.25;font-family:sans-serif;white-space:pre;shape-inside:url(#rect4167);fill:#00ffff;fill-opacity:1;stroke:none;"
         transform="translate(133.30067,38.019091)"><tspan
           x="1.6035156"
           y="38.500982"><tspan
             style="font-style:normal;font-variant:normal;font-weight:600;font-stretch:normal;font-size:5.64444px;font-family:Rubik;-inkscape-font-specification:'Rubik Semi-Bold';fill:#00ffff">3</tspan></tspan></text>
      <text
         xml:space="preserve"
         id="text4171"
         style="font-style:normal;font-weight:normal;font-size:10.5833px;line-height:1.25;font-family:sans-serif;white-space:pre;shape-inside:url(#rect4173);fill:#000000;fill-opacity:1;stroke:none;"
         transform="translate(110.09834,45.93695)"><tspan
           x="6.4140625"
           y="43.081652"><tspan
             style="font-style:normal;font-variant:normal;font-weight:600;font-stretch:normal;font-family:Rubik;-inkscape-font-specification:'Rubik Semi-Bold';fill:#00ffff">2</tspan></tspan></text>
      <path
         style="fill:#00ffff;stroke:#00ffff;stroke-width:1.84886;stroke-linecap:butt;stroke-linejoin:miter;stroke-miterlimit:4;stroke-dasharray:none;stroke-opacity:1"
         d="m 114.89248,79.379048 h 9.72194"
         id="path4177" />
    </g>
  </g>
</svg>
