<?xml version="1.0" encoding="UTF-8" standalone="no"?>
<svg
   xmlns:dc="http://purl.org/dc/elements/1.1/"
   xmlns:cc="http://creativecommons.org/ns#"
   xmlns:rdf="http://www.w3.org/1999/02/22-rdf-syntax-ns#"
   xmlns:svg="http://www.w3.org/2000/svg"
   xmlns="http://www.w3.org/2000/svg"
   xmlns:sodipodi="http://sodipodi.sourceforge.net/DTD/sodipodi-0.dtd"
   xmlns:inkscape="http://www.inkscape.org/namespaces/inkscape"
   sodipodi:docname="graph.svg"
   id="svg8"
   version="1.1"
   viewBox="0 0 210 297"
   height="297mm"
   width="210mm"
   inkscape:version="1.0.2-2 (e86c870879, 2021-01-15)">
  <defs
     id="defs2">
    <inkscape:path-effect
       effect="fillet_chamfer"
       id="path-effect839"
       is_visible="true"
       lpeversion="1"
       satellites_param="F,0,0,1,0,3.175,0,1 @ F,0,0,1,0,3.175,0,1 @ F,0,0,1,0,7.14375,0,1 @ F,0,0,1,0,7.14375,0,1 @ F,0,0,1,0,3.175,0,1 @ F,0,0,1,0,3.175,0,1 @ F,0,0,1,0,3.175,0,1 @ F,0,0,1,0,3.175,0,1 @ F,0,0,1,0,3.175,0,1 @ F,0,0,1,0,3.175,0,1 @ F,0,0,1,0,10.073065,0,1 @ F,0,0,1,0,3.175,0,1 @ F,0,0,1,0,6.5767857,0,1 @ F,0,0,1,0,6.5767857,0,1 @ F,0,1,1,0,4.6869048,0,1 @ F,0,0,1,0,4.6869048,0,1 @ F,0,0,1,0,3.175,0,1 @ F,0,0,1,0,3.175,0,1 @ F,0,0,1,0,3.175,0,1 @ F,0,0,1,0,3.175,0,1 @ F,0,0,1,0,10.658547,0,1 @ F,0,0,1,0,10.658547,0,1 @ F,0,0,1,0,3.0067822,0,1 @ F,0,0,1,0,3.0067822,0,1 @ F,0,0,1,0,3.175,0,1 @ F,0,0,1,0,3.175,0,1 @ F,0,0,1,0,11.018006,0,1"
       unit="px"
       method="auto"
       mode="F"
       radius="12"
       chamfer_steps="1"
       flexible="false"
       use_knot_distance="true"
       apply_no_radius="true"
       apply_with_radius="true"
       only_selected="false"
       hide_knots="false" />
    <inkscape:path-effect
       effect="fillet_chamfer"
       id="path-effect837"
       is_visible="true"
       lpeversion="1"
       satellites_param="F,0,0,1,0,0,0,1 @ F,0,0,1,0,0,0,1 @ F,0,0,1,0,0,0,1 @ F,0,0,1,0,0,0,1 @ F,0,0,1,0,0,0,1 @ F,0,0,1,0,0,0,1 @ F,0,0,1,0,0,0,1 @ F,0,0,1,0,0,0,1 @ F,0,0,1,0,0,0,1 @ F,0,0,1,0,0,0,1 @ F,0,0,1,0,0,0,1 @ F,0,0,1,0,0,0,1 @ F,0,0,1,0,0,0,1 @ F,0,0,1,0,0,0,1 @ F,0,0,1,0,0,0,1 @ F,0,0,1,0,0,0,1 @ F,0,0,1,0,0,0,1 @ F,0,0,1,0,0,0,1 @ F,0,0,1,0,0,0,1 @ F,0,0,1,0,0,0,1 @ F,0,0,1,0,0,0,1 @ F,0,0,1,0,0,0,1 @ F,0,0,1,0,0,0,1 @ F,0,0,1,0,0,0,1 @ F,0,0,1,0,0,0,1 @ F,0,0,1,0,0,0,1 @ F,0,0,1,0,0,0,1"
       unit="px"
       method="auto"
       mode="F"
       radius="0"
       chamfer_steps="1"
       flexible="false"
       use_knot_distance="true"
       apply_no_radius="true"
       apply_with_radius="true"
       only_selected="false"
       hide_knots="false" />
  </defs>
  <sodipodi:namedview
     id="base"
     pagecolor="#ffffff"
     bordercolor="#666666"
     borderopacity="1.0"
     inkscape:pageopacity="0.0"
     inkscape:pageshadow="2"
     inkscape:zoom="1.4"
     inkscape:cx="271.72726"
     inkscape:cy="500.93067"
     inkscape:document-units="mm"
     inkscape:current-layer="layer1"
     inkscape:document-rotation="0"
     showgrid="false"
     inkscape:window-width="3840"
     inkscape:window-height="2050"
     inkscape:window-x="-12"
     inkscape:window-y="-12"
     inkscape:window-maximized="1"
     units="px" />
  <metadata
     id="metadata5">
    <rdf:RDF>
      <cc:Work
         rdf:about="">
        <dc:format>image/svg+xml</dc:format>
        <dc:type
           rdf:resource="http://purl.org/dc/dcmitype/StillImage" />
        <dc:title></dc:title>
      </cc:Work>
    </rdf:RDF>
  </metadata>
  <g
     inkscape:label="Layer 1"
     inkscape:groupmode="layer"
     id="layer1">
    <circle
       style="fill:#ffffff;fill-opacity:1;stroke:#ffffff;stroke-width:0.665001;stroke-miterlimit:4;stroke-dasharray:none;stroke-opacity:1"
       id="path1766"
       cx="102.43155"
       cy="120.29091"
       rx="56.507439"
       ry="75.122765" />
    <g
       id="g1764"
       transform="matrix(1,-0.36397023,0,1,0,34.753888)">
      <path
         style="fill:#0000b7;fill-opacity:1;stroke:none;stroke-width:0.264583px;stroke-linecap:butt;stroke-linejoin:miter;stroke-opacity:1"
         d="m 59.066564,75.070501 v 10.755251 a 3.175,3.175 135 0 1 -3.175,3.175 H 35.207051 a 7.14375,7.14375 135 0 0 -7.14375,7.14375 6.9517372,6.9517372 43.394747 0 0 7.14375,6.754268 h 19.882704 a 3.175,3.175 45 0 1 3.175,3.175 v 1.13354 a 3.175,3.175 135 0 1 -3.175,3.175 h -8.884362 a 3.175,3.175 135 0 0 -3.175,3.175 v 2.20263 a 3.175,3.175 45 0 0 3.175,3.175 l 1.935356,0 a 3.175,3.175 45 0 1 3.175,3.175 v 3.2717 a 3.175,3.175 135 0 1 -3.175,3.175 h -6.52988 A 10.073065,10.073065 135 0 0 31.537804,138.6297 v 6.52989 a 3.175,3.175 45 0 0 3.175,3.175 H 144.69776 a 6.5767857,6.5767857 135 0 0 6.57679,-6.57679 6.5481678,6.5481678 44.749046 0 0 -6.57679,-6.51942 h -6.3761 a 4.6869048,4.6869048 45 0 1 -4.6869,-4.6869 l 0,-0.2479 a 4.6869048,4.6869048 135 0 1 4.6869,-4.6869 h 14.85601 a 3.175,3.175 135 0 0 3.175,-3.175 v -15.03157 a 3.175,3.175 45 0 0 -3.175,-3.175 h -25.1878 a 3.175,3.175 45 0 1 -3.175,-3.175 v -4.073508 a 3.175,3.175 135 0 1 3.175,-3.175 h 22.5151 A 10.658547,10.658547 135 0 0 161.16352,83.153055 10.426161,10.426161 43.70828 0 0 150.50497,72.964579 h -11.19073 a 3.0067822,3.0067822 45 0 1 -3.00678,-3.006782 2.9407232,2.9407232 136.30197 0 1 3.00678,-2.873146 h 8.78531 a 3.175,3.175 135 0 0 3.175,-3.175 v -3.271703 a 3.175,3.175 45 0 0 -3.175,-3.175 l -78.081798,0 A 10.967114,10.967114 134.86737 0 0 59.050755,68.480836 l 0.0011,0.239699 a 1371.5945,1371.5945 89.867371 0 1 0.0147,6.349966 z"
         id="path833"
         inkscape:path-effect="#path-effect839"
         inkscape:original-d="M 59.066564,71.895501 V 89.000752 H 28.063301 v 13.898018 h 30.201454 v 7.48354 H 43.030393 v 8.55263 h 8.285356 v 9.6217 H 31.537804 v 19.77795 H 151.27455 v -13.09621 h -17.63979 v -9.6217 h 22.71791 v -21.38157 h -31.5378 V 93.811602 h 36.34865 V 72.964579 h -24.85606 v -5.879928 h 14.96709 V 57.462948 H 58.999746 Z" />
      <path
         style="fill:none;fill-opacity:1;stroke:#00ffff;stroke-width:0.736;stroke-miterlimit:4;stroke-dasharray:none"
         d="M 77.850741,98.498014 H 114.86832 M 95.12557,111.56519 V 72.624774 M 77.850741,143.09004 c 0.06203,0.0576 0.124023,-1.89466 0.186019,-1.838 0.06203,0.057 0.124022,-1.85179 0.186018,-1.79543 0.06203,0.0561 0.124023,-1.80923 0.186019,-1.75377 0.06203,0.0555 0.124023,-1.76725 0.186019,-1.71239 0.06203,0.0552 0.124022,-1.72558 0.186019,-1.67132 0.06203,0.0546 0.124022,-1.68421 0.186018,-1.63055 0.062,0.0537 0.124023,-1.64374 0.186019,-1.59067 0.062,0.0534 0.124023,-1.60327 0.186019,-1.55051 0.062,0.0525 0.124022,-1.5634 0.186019,-1.51153 0.062,0.0519 0.124022,-1.52383 0.186018,-1.47256 0.062,0.0513 0.124023,-1.48456 0.186019,-1.43419 0.062,0.0507 0.124023,-1.44588 0.186019,-1.39582 0.062,0.0501 0.124022,-1.4078 0.186018,-1.35834 0.062,0.0495 0.123993,-1.36973 0.186019,-1.32117 0.062,0.0489 0.123993,-1.33226 0.186019,-1.28429 0.062,0.0483 0.123992,-1.29539 0.186019,-1.24772 0.062,0.0477 0.123992,-1.25881 0.186018,-1.21174 0.062,0.0468 0.123993,-1.22284 0.186019,-1.17637 0.062,0.0462 0.123993,-1.18717 0.186019,-1.1413 0.062,0.0456 0.123992,-1.15149 0.185989,-1.10652 0.06203,0.045 0.124022,-1.11671 0.186018,-1.07204 0.06203,0.0444 0.124023,-1.08224 0.186019,-1.03847 0.06203,0.0438 0.124023,-1.04806 0.186019,-1.00489 0.06203,0.0432 0.124022,-1.01448 0.186019,-0.97191 0.06203,0.0429 0.124022,-0.98091 0.186018,-0.93894 0.06203,0.042 0.124023,-0.94853 0.186019,-0.90716 0.062,0.0414 0.124022,-0.91585 0.186019,-0.87508 0.062,0.0408 0.124022,-0.88408 0.186018,-0.84391 0.062,0.0402 0.124023,-0.8526 0.186019,-0.81302 0.062,0.0396 0.124023,-0.82142 0.186019,-0.78245 0.062,0.039 0.124022,-0.79054 0.186019,-0.75217 0.062,0.0381 0.124022,-0.76026 0.186018,-0.72279 0.062,0.0378 0.124023,-0.73029 0.186019,-0.69341 0.062,0.0372 0.123993,-0.70091 0.186019,-0.66433 0.062,0.0363 0.123992,-0.67213 0.186019,-0.63615 0.062,0.0357 0.123992,-0.64335 0.186018,-0.60827 0.062,0.0354 0.123993,-0.615166 0.186019,-0.580386 0.062,0.0345 0.123992,-0.58729 0.186019,-0.55341 0.062,0.0339 0.123992,-0.56001 0.186018,-0.52673 0.062,0.0333 0.123993,-0.53303 0.185989,-0.50035 0.06203,0.0327 0.124023,-0.50634 0.186019,-0.47426 0.06203,0.0321 0.124022,-0.48057 0.186019,-0.44909 0.06203,0.0315 0.124022,-0.45478 0.186018,-0.4239 0.06203,0.0309 0.124023,-0.4293 0.186019,-0.39902 0.06203,0.03 0.124023,-0.40471 0.186019,-0.37503 0.06203,0.0294 0.124022,-0.38043 0.186019,-0.35135 0.06203,0.0291 0.124022,-0.35615 0.186018,-0.32767 0.062,0.0282 0.124023,-0.33277 0.186019,-0.30489 0.062,0.0276 0.124022,-0.30938 0.186019,-0.2824 0.062,0.0273 0.124022,-0.2866 0.186018,-0.26022 0.062,0.0267 0.124023,-0.26441 0.186019,-0.23833 0.062,0.0258 0.124023,-0.24253 0.186019,-0.21734 0.062,0.0252 0.124022,-0.22095 0.186019,-0.19637 0.062,0.0246 0.123992,-0.19995 0.186018,-0.17597 0.062,0.0243 0.123993,-0.17927 0.186019,-0.15559 0.062,0.0234 0.123993,-0.15919 0.186019,-0.1364 0.062,0.0228 0.123992,-0.13941 0.186019,-0.11692 0.062,0.0222 0.123992,-0.11992 0.186018,-0.0983 0.062,0.0216 0.123993,-0.10103 0.186019,-0.08 0.062,0.021 0.123992,-0.0824 0.186019,-0.062 0.062,0.0204 0.123992,-0.0642 0.185988,-0.0447 0.06203,0.0198 0.124023,-0.0465 0.186019,-0.0273 0.06203,0.0192 0.124023,-0.0294 0.186019,-0.0108 0.06203,0.0186 0.124022,-0.0123 0.186019,0.005 0.06203,0.018 0.124022,0.004 0.186018,0.0213 0.06203,0.0174 0.124023,0.0201 0.186019,0.0369 0.06203,0.0165 0.124023,0.0357 0.186019,0.0516 0.062,0.0162 0.124022,0.051 0.186019,0.0663 0.062,0.0156 0.124022,0.0656 0.186018,0.0803 0.062,0.015 0.124023,0.08 0.186019,0.0944 0.062,0.0141 0.124022,0.0938 0.186019,0.10733 0.062,0.0135 0.124022,0.10732 0.186018,0.12021 0.062,0.0129 0.124023,0.12052 0.186019,0.13281 0.062,0.0123 0.123993,0.13341 0.186019,0.1451 0.062,0.0117 0.123992,0.1454 0.186019,0.15649 0.062,0.0111 0.123992,0.15709 0.186018,0.16758 0.062,0.0105 0.123993,0.16878 0.186019,0.17867 0.062,0.01 0.123993,0.17958 0.186019,0.18887 0.062,0.009 0.123992,0.19007 0.186019,0.19876 0.062,0.008 0.123992,0.20026 0.186018,0.20835 0.062,0.008 0.123993,0.21015 0.185989,0.21735 0.06203,0.007 0.124023,0.21944 0.186019,0.22634 0.06203,0.007 0.124022,0.22814 0.186018,0.23443 0.06203,0.006 0.124023,0.23684 0.186019,0.24223 0.06203,0.005 0.124023,0.24493 0.186019,0.24973 0.06203,0.005 0.124022,0.25242 0.186019,0.25662 0.06203,0.004 0.124022,0.25991 0.186018,0.26351 0.062,0.004 0.124023,0.26651 0.186019,0.26951 0.062,0.003 0.124023,0.27281 0.186019,0.27521 0.062,0.002 0.124022,0.2788 0.186019,0.2806 0.062,0.002 0.124022,0.2842 0.186018,0.2854 0.062,10e-4 0.124023,0.28959 0.186019,0.29019 0.062,3e-4 0.124023,0.29409 0.186019,0.29409 0.062,-3e-4 0.124022,0.29829 0.186138,0.29769 0.06176,-9e-4 0.123813,0.30219 0.185869,0.30099 0.06206,-10e-4 0.124113,0.30579 0.186169,0.30369 0.06176,-0.002 0.123812,0.30878 0.185869,0.30608 0.06206,-0.002 0.124112,0.311476 0.186168,0.308176 0.06176,-0.003 0.123813,0.31358 0.185869,0.30968 0.06206,-0.004 0.124113,0.31538 0.186169,0.31089 0.06176,-0.004 0.123812,0.31687 0.185869,0.31178 0.06206,-0.005 0.124112,0.31747 0.186168,0.31178 0.06176,-0.006 0.123813,0.31807 0.185869,0.31178 0.06206,-0.006 0.124112,0.31807 0.186169,0.31118 0.06176,-0.007 0.123812,0.31777 0.185869,0.31028 0.06206,-0.008 0.124112,0.31687 0.186168,0.30878 0.06176,-0.008 0.123813,0.31598 0.185869,0.30728 0.06206,-0.009 0.124112,0.31418 0.186169,0.30489 0.06176,-0.01 0.123812,0.31208 0.185868,0.30218 0.06206,-0.0102 0.124113,0.30968 0.186169,0.29919 0.06176,-0.0108 0.123813,0.30669 0.185869,0.29559 0.06206,-0.0114 0.124112,0.30369 0.185869,0.2917 0.06206,-0.0117 0.124112,0.30009 0.186168,0.28749 0.06206,-0.0123 0.124113,0.2959 0.185869,0.28271 0.06206,-0.0129 0.124113,0.29139 0.186169,0.2776 0.06206,-0.0138 0.124112,0.2863 0.185869,0.27191 0.06206,-0.0141 0.124112,0.2809 0.186168,0.26621 0.06206,-0.015 0.124113,0.27491 0.185869,0.25932 0.06206,-0.0153 0.124113,0.26891 0.186169,0.25272 0.06206,-0.0159 0.12411,0.26231 0.18587,0.24553 0.0621,-0.0168 0.12411,0.25541 0.18617,0.23803 0.0621,-0.0177 0.12411,0.24762 0.18587,0.22964 0.0621,-0.018 0.12411,0.23983 0.18617,0.22124 0.0621,-0.0189 0.12411,0.23144 0.18586,0.21225 0.0621,-0.0195 0.12412,0.22274 0.18617,0.20266 0.0621,-0.0198 0.12411,0.21375 0.18587,0.19336 0.0621,-0.0207 0.12411,0.20386 0.18617,0.18287 0.0621,-0.0213 0.12411,0.19396 0.18587,0.17238 0.0621,-0.0219 0.12411,0.18347 0.18617,0.16129 0.0621,-0.0225 0.12411,0.17267 0.18587,0.14959 0.0621,-0.0228 0.12411,0.16159 0.18616,0.1382 0.0621,-0.0237 0.12412,0.1499 0.18587,0.12561 0.0621,-0.0243 0.12412,0.13761 0.18617,0.11302 0.0621,-0.0249 0.12411,0.12502 0.18587,0.0998 0.0621,-0.0255 0.12411,0.11212 0.18617,0.086 0.0621,-0.0261 0.12411,0.0989 0.18587,0.0722 0.0621,-0.0267 0.12411,0.0854 0.18617,0.0582 0.0621,-0.0276 0.12411,0.0708 0.18587,0.0429 0.0621,-0.0279 0.12411,0.0564 0.18616,0.0279 0.0621,-0.0285 0.12412,0.0414 0.18587,0.0123 0.0621,-0.0291 0.12412,0.0258 0.18617,-0.004 0.0621,-0.0297 0.12411,0.0102 0.18587,-0.0204 0.0621,-0.0303 0.12411,-0.006 0.18617,-0.0372 0.0621,-0.0312 0.12411,-0.0231 0.18587,-0.0546 0.0621,-0.0318 0.12411,-0.0402 0.18617,-0.0726 0.0621,-0.0321 0.12381,-0.0576 0.18587,-0.0902 0.0621,-0.033 0.12411,-0.0758 0.18616,-0.10912 0.0621,-0.0336 0.12382,-0.0941 0.18587,-0.12831 0.0621,-0.0339 0.12412,-0.11272 0.18617,-0.1475 0.0621,-0.0348 0.12381,-0.13191 0.18587,-0.16728 0.0621,-0.0354 0.12411,-0.15169 0.18617,-0.18767 0.0621,-0.036 0.12381,-0.17178 0.18587,-0.20835 0.0621,-0.0366 0.12411,-0.19217 0.18617,-0.22934 0.0621,-0.0375 0.12381,-0.21315 0.18587,-0.25122 0.0621,-0.0378 0.12411,-0.23444 0.18616,-0.27281 0.0621,-0.0384 0.12382,-0.25632 0.18587,-0.29529 0.0621,-0.039 0.12412,-0.27851 0.18617,-0.31808 0.0621,-0.0396 0.12381,-0.30099 0.18587,-0.34116 0.0621,-0.0405 0.12411,-0.32407 0.18617,-0.36514 0.0621,-0.0408 0.12381,-0.34715 0.18587,-0.38882 0.0621,-0.0417 0.12411,-0.37114 0.18617,-0.41341 0.0621,-0.0423 0.12381,-0.39542 0.18587,-0.43829 0.0621,-0.0429 0.12411,-0.42031 0.18616,-0.46348 0.0621,-0.0435 0.12382,-0.44548 0.18587,-0.48955 0.0621,-0.0441 0.12412,-0.47067 0.18617,-0.51534 0.0621,-0.0447 0.12381,-0.49675 0.18587,-0.54202 0.0621,-0.0453 0.12411,-0.52313 0.18617,-0.56899 0.0621,-0.0459 0.12381,-0.55012 0.18587,-0.59658 0.0621,-0.0465 0.12411,-0.5771 0.18617,-0.62416 0.0621,-0.0471 0.12381,-0.60468 0.18587,-0.65264 0.0621,-0.0477 0.12411,-0.632556 0.18616,-0.681116 0.0621,-0.0483 0.12382,-0.66103 0.18587,-0.7102 0.0621,-0.0489 0.12412,-0.69011 0.18617,-0.73958 0.0621,-0.0498 0.12381,-0.71949 0.18587,-0.76985 0.0621,-0.0501 0.12411,-0.74918 0.18617,-0.79984 0.0621,-0.051 0.12381,-0.77945 0.18587,-0.83071 0.0621,-0.0516 0.12411,-0.81003 0.18617,-0.8619 0.0621,-0.0522 0.12381,-0.8409 0.18587,-0.89366 0.0621,-0.0528 0.12411,-0.87239 0.18616,-0.92545 0.0618,-0.0534 0.12382,-0.90416 0.18587,-0.95813 0.0621,-0.054 0.12412,-0.93624 0.18617,-0.9908 0.0618,-0.0546 0.12381,-0.96891 0.18587,-1.02407 0.0621,-0.0552 0.12411,-1.0022 0.18617,-1.05796 0.0618,-0.0558 0.12381,-1.03547 0.18587,-1.09183 0.0621,-0.0567 0.12411,-1.06964 0.18617,-1.1266 0.0618,-0.057 0.12381,-1.10382 0.18587,-1.16138 0.0621,-0.0576 0.12411,-1.1386 0.18616,-1.19706 0.0618,-0.0582 0.12382,-1.17367 0.18587,-1.23243 0.0621,-0.0591 0.12411,-1.20934 0.18617,-1.269 0.0618,-0.0594 0.12381,-1.24532 0.18587,-1.30528 0.0621,-0.0603 0.12411,-1.2819 0.18617,-1.34275 0.0618,-0.0606 0.12381,-1.31847 0.18587,-1.37993 0.0621,-0.0612 0.12411,-1.35594 0.18617,-1.418 0.0618,-0.0618 0.12381,-1.39342 0.18586,-1.45607 0.0621,-0.0627 0.12412,-1.43179 0.18617,-1.49505 0.0618,-0.0632 0.12382,-1.47016 0.18587,-1.53401 0.0621,-0.0639 0.12411,-1.50944 0.18617,-1.57359 0.0618,-0.0645 0.12381,-1.54871 0.18587,-1.61376 0.0621,-0.0651 0.12411,-1.58858 0.18617,-1.65424"
         title="x*(x+2)*(x-3)"
         id="path1730" />
      <path
         style="fill:none;stroke:#00ffff;stroke-width:0.665;stroke-linecap:butt;stroke-linejoin:miter;stroke-miterlimit:4;stroke-dasharray:none;stroke-opacity:1"
         d="m 102.68117,98.632501 -4.158467,4.887989"
         id="path1735" />
      <path
         style="fill:none;stroke:#00ffff;stroke-width:0.665;stroke-linecap:butt;stroke-linejoin:miter;stroke-miterlimit:4;stroke-dasharray:none;stroke-opacity:1"
         d="m 99.691221,98.557295 -2.456846,2.929315"
         id="path1737" />
      <path
         style="fill:none;stroke:#00ffff;stroke-width:0.665;stroke-linecap:butt;stroke-linejoin:miter;stroke-miterlimit:4;stroke-dasharray:none;stroke-opacity:1"
         d="m 105.66469,98.762207 -5.52134,7.622163"
         id="path1739" />
      <path
         style="fill:none;stroke:#00ffff;stroke-width:0.665;stroke-linecap:butt;stroke-linejoin:miter;stroke-miterlimit:4;stroke-dasharray:none;stroke-opacity:1"
         d="m 109.2776,98.700191 -7.4744,9.522679"
         id="path1741" />
      <path
         style="fill:none;stroke:#00ffff;stroke-width:0.665;stroke-linecap:butt;stroke-linejoin:miter;stroke-miterlimit:4;stroke-dasharray:none;stroke-opacity:1"
         d="m 108.06733,104.30214 -4.15847,4.88799"
         id="path1743" />
      <circle
         style="fill:#0000b7;fill-opacity:1;stroke:#0000b7;stroke-width:0.665001;stroke-miterlimit:4;stroke-dasharray:none;stroke-opacity:1"
         id="path1745"
         cx="33.923363"
         cy="114.14882"
         r="3.2127976" />
      <circle
         style="fill:#0000b7;fill-opacity:1;stroke:#0000b7;stroke-width:0.665001;stroke-miterlimit:4;stroke-dasharray:none;stroke-opacity:1"
         id="circle1747"
         cx="159.69495"
         cy="142.40254"
         r="3.2127976" />
      <circle
         style="fill:#0000b7;fill-opacity:1;stroke:#0000b7;stroke-width:0.665001;stroke-miterlimit:4;stroke-dasharray:none;stroke-opacity:1"
         id="circle1749"
         cx="159.50595"
         cy="61.988106"
         r="3.2127976" />
      <circle
         style="fill:#0000b7;fill-opacity:1;stroke:#0000b7;stroke-width:0.665001;stroke-miterlimit:4;stroke-dasharray:none;stroke-opacity:1"
         id="circle1751"
         cx="51.026783"
         cy="78.619057"
         r="3.2127976" />
    </g>
  </g>
</svg>
